<svg width="200" height="36" viewBox="0 0 200 36" fill="none" xmlns="http://www.w3.org/2000/svg">
<g clip-path="url(#clip0_3213_4658)">
<rect width="200" height="36" fill="white"/>
<g clip-path="url(#clip1_3213_4658)">
<path d="M32.6397 8.52525L20.6083 20.5618C20.0299 21.1092 19.6737 20.9749 19.3174 20.6341C19.2038 20.3191 19.6582 18.9249 19.8544 18.3363C20.5102 16.3637 21.5068 13.3946 19.2761 11.1639C17.6495 9.53733 15.6305 9.0158 13.5805 9.69741C12.2225 10.1518 11.3343 10.9987 11.1691 11.1639L0.516369 21.8114C0.175565 20.4276 0 19.0075 0 17.5772C0 12.8834 1.83311 8.46329 5.1482 5.1482C8.46329 1.83311 12.8834 0 17.5772 0C22.271 0 26.6911 1.83311 30.0062 5.1482C31.0183 6.16028 31.9013 7.29629 32.6397 8.52525Z" fill="#00D7FF"/>
<path d="M35.1527 17.5767C35.1527 22.2705 33.3195 26.6906 30.0045 30.0057C26.6894 33.3208 22.2692 35.1539 17.5755 35.1539C12.8817 35.1539 8.46155 33.3208 5.14646 30.0057C4.13437 28.9936 3.24622 27.8576 2.50781 26.6338L14.5392 14.5973C15.1175 14.0499 15.4738 14.1842 15.8301 14.525C15.9437 14.84 15.4893 16.2342 15.2931 16.8228C14.6373 18.7953 13.6407 21.7645 15.8714 23.9952C17.498 25.6217 19.517 26.1433 21.567 25.4617C22.925 25.0073 23.8132 24.1604 23.9784 23.9952L34.6311 13.3477C34.9771 14.7264 35.1527 16.1412 35.1527 17.5767Z" fill="#0060BE"/>
<path d="M58.5835 6.2793V10.8801V20.087L50.6934 6.2793H44.4453V29.2939H50.3629V15.4862L58.253 29.2939H64.5011V10.8801H85.8684V6.2793H58.5835Z" fill="black"/>
<path d="M84.0603 19.9212V15.3203H68.4453V19.9212H74.3629H84.0603Z" fill="black"/>
<path d="M106.755 17.0411C105.712 15.9981 104.044 15.4817 101.741 15.4817L96.226 15.4869C94.9092 15.4869 94.2534 14.8311 94.2534 13.5143V12.8585C94.2534 11.5418 94.9092 10.886 96.226 10.886H106.45V6.28516H94.9092C92.6062 6.28516 90.9383 6.80669 89.8953 7.84459C88.8522 8.88766 88.3358 10.5555 88.3358 12.8585V13.8448C88.3358 16.1478 88.8574 17.8157 89.8953 18.8587C90.9383 19.9018 92.6062 20.4182 94.9092 20.4182L100.424 20.413C101.741 20.413 102.397 21.0688 102.397 22.3855V22.7315C102.397 24.0482 101.741 24.704 100.424 24.704H68.4453V29.3049H101.741C104.044 29.3049 105.712 28.7833 106.755 27.7454C107.798 26.7024 108.314 25.0345 108.314 22.7315V22.0551C108.319 19.7572 107.798 18.0842 106.755 17.0411Z" fill="black"/>
<path d="M131.761 29.0353C126.845 29.4742 122.771 29.6962 119.533 29.6962C117.375 29.6962 115.789 29.1902 114.772 28.1781C113.76 27.166 113.254 25.5808 113.254 23.4172V12.8419C113.254 10.5286 113.775 8.85041 114.824 7.80218C115.872 6.75395 117.55 6.23242 119.863 6.23242H131.761V10.8591H121.185C119.863 10.8591 119.202 11.52 119.202 12.8419V23.4172C119.202 23.9232 119.352 24.326 119.647 24.6255C119.946 24.925 120.323 25.0696 120.788 25.0696C121.252 25.0696 121.759 25.0644 122.306 25.0541C122.853 25.0437 123.432 25.0282 124.025 25.0024C124.619 24.9818 125.218 24.9611 125.827 24.9353C126.432 24.9146 127.217 24.8682 128.172 24.801C129.132 24.7339 130.325 24.6565 131.755 24.5687V29.0353H131.761Z" fill="url(#paint0_linear_3213_4658)"/>
<path d="M138.534 29.3657H132.09L140.847 6.23242H147.457L156.215 29.3657H149.77L148.283 25.2348H140.021L138.534 29.3657ZM141.508 20.9386H146.796L144.152 13.1724L141.508 20.9386Z" fill="url(#paint1_linear_3213_4658)"/>
<path d="M157.867 6.23242H171.747C174.061 6.23242 175.739 6.75395 176.787 7.80218C177.835 8.85041 178.357 10.5286 178.357 12.8419V15.8162C178.357 17.6442 178.052 19.0642 177.448 20.0814C176.844 21.0935 175.878 21.7648 174.556 22.0953L178.687 29.3657H172.243L168.442 22.4258H163.816V29.3657H157.867V6.23242ZM172.408 12.8419C172.408 11.52 171.747 10.8591 170.425 10.8591H163.816V17.7991H170.425C171.747 17.7991 172.408 17.1381 172.408 15.8162V12.8419Z" fill="url(#paint2_linear_3213_4658)"/>
<path d="M199.998 29.3657H181.656V6.23242H199.998V10.8591H187.605V15.3205H197.354V19.9472H187.605V24.7391H199.998V29.3657Z" fill="url(#paint3_linear_3213_4658)"/>
</g>
</g>
<defs>
<linearGradient id="paint0_linear_3213_4658" x1="110.416" y1="17.9653" x2="212.391" y2="17.9653" gradientUnits="userSpaceOnUse">
<stop stop-color="#0060BE"/>
<stop offset="1" stop-color="#00D7FF"/>
</linearGradient>
<linearGradient id="paint1_linear_3213_4658" x1="110.415" y1="17.8002" x2="212.389" y2="17.8002" gradientUnits="userSpaceOnUse">
<stop stop-color="#0060BE"/>
<stop offset="1" stop-color="#00D7FF"/>
</linearGradient>
<linearGradient id="paint2_linear_3213_4658" x1="110.415" y1="17.8002" x2="212.39" y2="17.8002" gradientUnits="userSpaceOnUse">
<stop stop-color="#0060BE"/>
<stop offset="1" stop-color="#00D7FF"/>
</linearGradient>
<linearGradient id="paint3_linear_3213_4658" x1="110.415" y1="17.8002" x2="212.39" y2="17.8002" gradientUnits="userSpaceOnUse">
<stop stop-color="#0060BE"/>
<stop offset="1" stop-color="#00D7FF"/>
</linearGradient>
<clipPath id="clip0_3213_4658">
<rect width="200" height="36" fill="white"/>
</clipPath>
<clipPath id="clip1_3213_4658">
<rect width="200" height="35.1544" fill="white"/>
</clipPath>
</defs>
</svg>
